:SAMPLES-PER-SECOND 30
:FULLY-SPECIFIED
:DEGREES
436
root  -3.22814 40.9616 0.809381 -177.96 -86.4765 -178.185
RightUpLeg  0.950814 -1.29992 -2.40876
RightLeg  -3.97226 -15.914 1.18065
RightFoot  0.762617 -0.428012 4.08832
RightToes  -3.11842e-008 1.75238e-005 3.56266e-009
Spine  -5.07324 -2.81722 -8.53301
Spine1  -1.08654 -3.49021 7.87332
HEad  -10.8612 6.91084 0.104011
LeftShoulder1  2.9013 -5.89174 -24.6989
LeftArm  -49.6514 -35.1694 -37.1724
LeftForeArm  -32.4494 -48.0748 -14.4289
LeftHand  0.46913 11.0864 10.2845
RightShoulder  3.4096 6.77272 27.1854
RightArm  22.5907 -24.1171 31.2518
RightForeArm  96.6213 70.6304 142.721
RightHand  -0.209279 3.51912 -2.97719
LeftUpLeg  1.06844 0.322231 1.46917
LeftLeg  -4.96836 18.8845 -1.96581
LeftFoot  0.972699 0.185232 -1.85672
LeftToes  4.7713e-008 1.46693e-008 1.32589e-009
437
root  -3.23695 40.9613 0.820217 -177.62 -86.5896 -178.718
RightUpLeg  1.13486 -1.49383 -2.53661
RightLeg  -3.84721 -15.807 1.25573
RightFoot  0.697662 -0.42916 4.11299
RightToes  -3.11842e-008 1.75238e-005 3.56266e-009
Spine  -4.75313 -2.95682 -8.69581
Spine1  -1.39311 -3.6675 8.16175
HEad  -9.96674 7.1848 -0.0480783
LeftShoulder1  2.86932 -5.82467 -24.5723
LeftArm  -49.8654 -34.8091 -36.6756
LeftForeArm  -35.2394 -44.4841 -12.9098
LeftHand  0.7948 12.1005 14.2148
RightShoulder  3.33114 6.57759 27.0463
RightArm  23.3879 -23.8345 31.3012
RightForeArm  96.4765 70.7904 142.362
RightHand  -0.216111 3.47713 -3.0759
LeftUpLeg  1.25717 0.317726 1.40893
LeftLeg  -4.9175 18.7759 -1.93625
LeftFoot  0.959488 0.183039 -1.82153
LeftToes  4.7713e-008 1.46693e-008 1.32589e-009
438
root  -3.25261 40.9621 0.835271 -178.282 -86.6126 -178.134
RightUpLeg  1.27172 -1.52524 -2.54201
RightLeg  -3.90256 -15.8014 1.30044
RightFoot  0.718596 -0.427369 4.09156
RightToes  -3.11842e-008 1.75238e-005 3.56266e-009
Spine  -4.75733 -3.1085 -8.54125
Spine1  -1.41695 -3.81416 8.0485
HEad  -9.70285 7.42609 -0.057699
LeftShoulder1  2.88933 -5.8979 -24.5441
LeftArm  -51.3157 -34.1953 -36.6556
LeftForeArm  -36.5689 -42.7737 -12.2681
LeftHand  0.99015 12.9973 15.4883
RightShoulder  3.33266 6.59369 27.0067
RightArm  23.7003 -23.6525 31.4995
RightForeArm  96.8103 70.7655 142.451
RightHand  -0.237057 3.77904 -3.26102
LeftUpLeg  1.35296 0.341815 1.41308
LeftLeg  -4.88393 18.7342 -1.91316
LeftFoot  0.915485 0.182369 -1.80956
LeftToes  4.7713e-008 1.46693e-008 1.32589e-009
439
root  -3.26889 40.9635 0.848469 -178.15 -86.5113 -178.232
RightUpLeg  1.21208 -1.52758 -2.56361
RightLeg  -3.83141 -15.6706 1.26093
RightFoot  0.693795 -0.425299 4.06533
RightToes  -3.11842e-008 1.75238e-005 3.56266e-009
Spine  -4.76797 -3.2203 -8.68025
Spine1  -1.52225 -3.94392 8.27819
HEad  -9.58009 8.0069 0.31036
LeftShoulder1  2.86757 -5.78589 -24.6871
LeftArm  -51.7318 -32.8671 -36.8572
LeftForeArm  -36.4715 -43.6283 -12.6129
LeftHand  0.975724 13.2857 14.6962
RightShoulder  3.34549 6.63137 27.0104
RightArm  23.814 -23.4164 31.6719
RightForeArm  97.129 70.6663 142.698
RightHand  -0.234843 3.95306 -3.18217
LeftUpLeg  1.40524 0.339636 1.39824
LeftLeg  -4.99648 18.8109 -1.97591
LeftFoot  0.930832 0.178949 -1.75476
LeftToes  4.7713e-008 1.46693e-008 1.32589e-009
440
root  -3.2849 40.9652 0.859436 -178.183 -86.3582 -178.099
RightUpLeg  1.16664 -1.52179 -2.58168
RightLeg  -3.95923 -15.5431 1.29878
RightFoot  0.755248 -0.428306 4.11749
RightToes  -3.11842e-008 1.75238e-005 3.56266e-009
Spine  -4.95202 -3.23539 -8.59338
Spine1  -1.41369 -3.9439 8.17068
HEad  -9.7092 8.00318 0.581689
LeftShoulder1  2.86262 -5.65105 -25.1059
LeftArm  -51.61 -32.1568 -36.8264
LeftForeArm  -35.326 -44.9754 -13.1255
LeftHand  0.736775 12.0163 13.4486
RightShoulder  3.2988 6.52556 26.8897
RightArm  23.4648 -23.479 32.2147
RightForeArm  97.4886 70.5465 142.99
RightHand  -0.209758 3.84821 -2.89815
LeftUpLeg  1.35828 0.352012 1.39788
LeftLeg  -5.04803 18.9401 -2.02752
LeftFoot  0.93761 0.175551 -1.70058
LeftToes  4.7713e-008 1.46693e-008 1.32589e-009
441
root  -3.29452 40.9669 0.873761 -177.84 -86.2906 -178.308
RightUpLeg  1.0342 -1.47803 -2.59423
RightLeg  -3.97481 -15.5306 1.25144
RightFoot  0.762413 -0.439762 4.30043
RightToes  -3.11842e-008 1.75238e-005 3.56266e-009
Spine  -5.39562 -3.0938 -8.22334
Spine1  -1.07302 -3.73056 7.62506
HEad  -9.88464 7.13028 1.1364
LeftShoulder1  2.86942 -5.60471 -25.3473
LeftArm  -50.8103 -32.5082 -36.4398
LeftForeArm  -35.6298 -45.3673 -13.307
LeftHand  0.706555 12.152 12.6832
RightShoulder  3.27308 6.45886 26.8499
RightArm  22.6737 -23.8472 32.7338
RightForeArm  97.7864 70.4363 143.251
RightHand  -0.221881 3.96572 -3.0191
LeftUpLeg  1.27104 0.303221 1.35996
LeftLeg  -5.13312 19.0599 -2.06528
LeftFoot  0.927652 0.178167 -1.74058
LeftToes  4.7713e-008 1.46693e-008 1.32589e-009
442
root  -3.29837 40.9682 0.87626 -177.099 -86.3315 -179.005
RightUpLeg  1.06463 -1.47669 -2.62709
RightLeg  -4.12628 -15.5824 1.26519
RightFoot  0.812787 -0.432206 4.18783
RightToes  -3.11842e-008 1.75238e-005 3.56266e-009
Spine  -5.79605 -2.91907 -8.357
Spine1  -0.646229 -3.56009 7.71082
HEad  -9.59737 6.56338 1.1186
LeftShoulder1  2.98404 -5.89997 -25.591
LeftArm  -50.544 -33.0587 -36.0346
LeftForeArm  -35.3723 -45.3681 -13.2977
LeftHand  0.762374 12.6549 12.7111
RightShoulder  3.21442 6.32216 26.7061
RightArm  22.1269 -23.8914 33.0514
RightForeArm  97.5125 70.4681 143.156
RightHand  -0.243863 3.88396 -3.31642
LeftUpLeg  1.22679 0.244131 1.29085
LeftLeg  -5.14292 19.0827 -2.05256
LeftFoot  0.959562 0.173218 -1.66402
LeftToes  4.7713e-008 1.46693e-008 1.32589e-009
443
root  -3.29128 40.9689 0.872271 -177.533 -86.48 -178.582
RightUpLeg  1.09837 -1.46352 -2.5913
RightLeg  -4.15217 -15.7366 1.28907
RightFoot  0.838262 -0.432473 4.19634
RightToes  -3.11842e-008 1.75238e-005 3.56266e-009
Spine  -5.77171 -2.89185 -8.61827
Spine1  -0.681541 -3.56572 8.04548
HEad  -9.31374 6.37476 1.04522
LeftShoulder1  2.95444 -5.82141 -25.5374
LeftArm  -49.8548 -33.5217 -35.9588
LeftForeArm  -35.1393 -45.2398 -13.2332
LeftHand  0.775729 12.5797 13.0385
RightShoulder  3.22311 6.34445 26.7205
RightArm  21.9033 -23.7937 32.9321
RightForeArm  97.1748 70.5836 142.878
RightHand  -0.238475 3.65801 -3.31076
LeftUpLeg  1.22233 0.261753 1.33464
LeftLeg  -5.16064 18.9062 -2.04621
LeftFoot  0.997349 0.174567 -1.68684
LeftToes  4.7713e-008 1.46693e-008 1.32589e-009
444
root  -3.2728 40.9685 0.866198 -177.536 -86.6439 -178.671
RightUpLeg  1.15185 -1.48794 -2.59156
RightLeg  -4.06343 -15.8649 1.28184
RightFoot  0.827134 -0.432376 4.19888
RightToes  -3.11842e-008 1.75238e-005 3.56266e-009
Spine  -5.53113 -2.90178 -8.8252
Spine1  -0.885265 -3.59458 8.25304
HEad  -9.21587 6.15793 0.787509
LeftShoulder1  2.92794 -5.79991 -25.317
LeftArm  -49.5993 -33.7607 -36.0023
LeftForeArm  -34.7207 -45.0747 -13.1454
LeftHand  0.774173 12.6331 12.9179
RightShoulder  3.22222 6.35371 26.679
RightArm  21.7774 -23.6569 32.8583
RightForeArm  97.1358 70.6681 142.694
RightHand  -0.193803 3.35016 -2.81838
LeftUpLeg  1.27979 0.271859 1.34511
LeftLeg  -5.17301 18.76 -2.04016
LeftFoot  1.05312 0.176906 -1.72687
LeftToes  4.7713e-008 1.46693e-008 1.32589e-009
445
root  -3.26433 40.9659 0.860938 -177.503 -86.737 -178.766
RightUpLeg  1.19137 -1.50356 -2.58872
RightLeg  -4.00599 -15.9515 1.28183
RightFoot  0.77713 -0.427702 4.13007
RightToes  -3.11842e-008 1.75238e-005 3.56266e-009
Spine  -5.73204 -2.86649 -8.92305
Spine1  -0.587309 -3.56763 8.29413
HEad  -9.22266 6.32994 0.704684
LeftShoulder1  2.95284 -5.88615 -25.2921
LeftArm  -49.012 -33.812 -35.8302
LeftForeArm  -34.3932 -45.3486 -13.2506
LeftHand  0.669657 11.7491 12.8057
RightShoulder  3.25452 6.41856 26.7953
RightArm  21.7645 -23.2937 32.6552
RightForeArm  97.1716 70.6753 142.682
RightHand  -0.199803 3.31106 -2.90297
LeftUpLeg  1.3031 0.294644 1.35675
LeftLeg  -5.1315 18.6381 -2.02781
LeftFoot  1.04062 0.176994 -1.73414
LeftToes  4.7713e-008 1.46693e-008 1.32589e-009
446
root  -3.25373 40.9652 0.855999 -178.261 -86.9676 -178.074
RightUpLeg  1.29635 -1.50511 -2.54824
RightLeg  -4.04469 -16.2032 1.33067
RightFoot  0.775217 -0.425587 4.10074
RightToes  -3.11842e-008 1.75238e-005 3.56266e-009
Spine  -5.91195 -2.8913 -8.96314
Spine1  -0.180274 -3.61168 8.29801
HEad  -9.24419 6.32147 0.727233
LeftShoulder1  2.94673 -5.8697 -25.2818
LeftArm  -47.4072 -33.3462 -35.4202
LeftForeArm  -35.0128 -46.3721 -13.7282
LeftHand  0.709813 11.7428 13.4558
RightShoulder  3.26234 6.41461 26.8911
RightArm  21.7389 -23.0989 32.5267
RightForeArm  97.6461 70.5768 142.942
RightHand  -0.235684 3.59743 -3.29773
LeftUpLeg  1.24051 0.333491 1.4052
LeftLeg  -4.93234 18.3678 -1.94849
LeftFoot  0.993111 0.173333 -1.68572
LeftToes  4.7713e-008 1.46693e-008 1.32589e-009
